<?xml version="1.0" encoding="utf-8"?>
<!-- Generator: Adobe Illustrator 25.2.1, SVG Export Plug-In . SVG Version: 6.00 Build 0)  -->
<svg version="1.1" id="_x31_0" xmlns="http://www.w3.org/2000/svg" xmlns:xlink="http://www.w3.org/1999/xlink" x="0px" y="0px"
	 viewBox="0 0 512 512" style="enable-background:new 0 0 512 512;" xml:space="preserve">
<style type="text/css">
	.st0{fill:#BB9F54;}
</style>
<g>
	<path class="st0" d="M483.8,0H28.2C12.6,0,0,12.6,0,28.2v455.4C0,499.4,12.6,512,28.2,512h219.7V341h-74.3h-0.1v-86.2h74.4v-63.6
		c0-13.8,1.6-26.4,4.6-37.8c0.1-0.3,0.2-0.7,0.3-1c0.9-3.2,1.9-6.3,3-9.4c0.9-2.4,1.9-4.6,2.9-6.9c0.4-0.9,0.8-1.9,1.2-2.9
		c1.5-3,3.1-5.9,4.8-8.7c0.1-0.1,0.2-0.3,0.2-0.4c3.6-5.9,7.8-11.2,12.5-16.1c0.1-0.1,0.2-0.2,0.3-0.4c2-2.1,4.2-4,6.4-5.8
		c0.5-0.4,1-0.9,1.5-1.3c1.7-1.4,3.6-2.7,5.4-4c1.1-0.8,2.1-1.6,3.3-2.3c1.2-0.8,2.5-1.4,3.7-2.1c1.9-1.1,3.8-2.2,5.8-3.2
		c0.3-0.2,0.7-0.3,1.1-0.5c15.6-7.4,33.8-11.2,53.9-11.2c31.5,0,58.6,2.4,66.5,3.4v77h-45.6c-35.8,0-42.7,17-42.7,42v55h76.5l8.9,0
		L411.1,341h-73.9H337l0,0h-0.2v171h146.9c15.6,0,28.2-12.6,28.2-28.3V28.2C512,12.6,499.4,0,483.8,0z"/>
</g>
</svg>
